<?xml version="1.0" encoding="UTF-8"?>
<svg id="Layer_1" data-name="Layer 1" xmlns="http://www.w3.org/2000/svg" viewBox="0 0 1800 648.07">
  <defs>
    <style>
      .cls-1 {
        fill: #aa6d4b;
      }

      .cls-2 {
        fill: #69a3b9;
      }
    </style>
  </defs>
  <rect class="cls-2" x="379.71" y="445.23" width="3.38" height="120.45" transform="translate(-107.54 103.1) rotate(-13.51)"/>
  <rect class="cls-1" x="392.75" y="177.72" width="55.13" height="3.38" transform="translate(47.73 444.04) rotate(-58.5)"/>
  <rect class="cls-2" x="330.87" y="129.24" width="120.53" height="3.38" transform="translate(154.47 468.75) rotate(-73.49)"/>
  <rect class="cls-1" x="290.84" y="131.58" width="100.05" height="3.38" transform="translate(198.65 470.5) rotate(-88.49)"/>
  <rect class="cls-2" x="295.57" y="122.8" width="3.38" height="65.03" transform="translate(-28.06 73.75) rotate(-13.51)"/>
  <rect class="cls-1" x="237.92" y="70.88" width="3.38" height="136.86" transform="translate(-37.44 131.27) rotate(-28.51)"/>
  <rect class="cls-2" x="213.24" y="146.99" width="3.38" height="84.59" transform="translate(-71.27 199.99) rotate(-43.51)"/>
  <rect class="cls-1" x="164.5" y="147.29" width="3.38" height="131.11" transform="translate(-102.12 243.39) rotate(-58.51)"/>
  <rect class="cls-2" x="162.57" y="220.54" width="3.38" height="91.03" transform="translate(-137.47 348.05) rotate(-73.51)"/>
  <rect class="cls-1" x="136.19" y="247.17" width="3.38" height="129.19" transform="translate(-177.36 441.49) rotate(-88.51)"/>
  <rect class="cls-2" x="129.63" y="355.51" width="77.55" height="3.38" transform="translate(-78.85 49.27) rotate(-13.52)"/>
  <rect class="cls-1" x="101.41" y="408.81" width="124.78" height="3.38" transform="translate(-176.11 128) rotate(-28.52)"/>
  <rect class="cls-2" x="171.22" y="434.37" width="78.73" height="3.38" transform="translate(-242.32 264.69) rotate(-43.5)"/>
  <rect class="cls-1" x="159.26" y="489.16" width="140.58" height="3.38" transform="translate(-308.91 430.09) rotate(-58.5)"/>
  <rect class="cls-2" x="240.84" y="486.21" width="89.28" height="3.38" transform="translate(-263.43 622.99) rotate(-73.49)"/>
  <rect class="cls-1" x="259.68" y="519.92" width="142.18" height="3.38" transform="translate(-199.38 838.52) rotate(-88.49)"/>
  <g>
    <path class="cls-1" d="M335.73,411.18c-16.55,0-31.57-3.49-45.05-10.46-13.49-6.97-24.18-17.39-32.08-31.24-7.91-13.85-11.86-31.01-11.86-51.47,0-15.06,2.32-28.5,6.97-40.31,4.65-11.81,11.06-21.8,19.25-29.99,8.18-8.18,17.62-14.41,28.31-18.69,10.69-4.28,22.08-6.42,34.17-6.42,13.2,0,24.55,2.33,34.03,6.97,9.48,4.65,17.2,10.23,23.15,16.74l-21.48,24.83c-4.46-4.09-9.35-7.3-14.65-9.63-5.3-2.32-11.86-3.49-19.67-3.49-9.3,0-17.57,2.37-24.83,7.11-7.25,4.74-12.93,11.48-17.02,20.23-4.09,8.74-6.14,19.16-6.14,31.24s1.91,23.11,5.72,31.94c3.81,8.83,9.48,15.58,17.02,20.23,7.53,4.65,16.97,6.97,28.31,6.97,3.72,0,7.34-.46,10.88-1.4,3.53-.93,6.42-2.32,8.65-4.19v-31.24h-30.13v-33.47h66.39v83.69c-6.14,6.14-14.46,11.35-24.97,15.62-10.51,4.28-22.18,6.42-35.01,6.42Z"/>
    <path class="cls-1" d="M433.36,407.83v-181.88h62.49c13.39,0,25.53,1.81,36.4,5.44,10.88,3.63,19.57,9.72,26.08,18.27,6.51,8.56,9.76,20.18,9.76,34.87s-3.26,25.76-9.76,34.87c-6.51,9.11-15.16,15.86-25.94,20.22-10.79,4.37-22.6,6.56-35.43,6.56h-22.6v61.65h-41.01ZM474.36,313.55h20.08c11.34,0,19.76-2.51,25.25-7.53,5.48-5.02,8.23-12.18,8.23-21.48s-2.98-16.41-8.93-20.23c-5.95-3.81-14.51-5.72-25.66-5.72h-18.97v54.96Z"/>
    <path class="cls-1" d="M564.75,407.83l56.91-181.88h49.1l57.19,181.88h-43.52l-23.71-92.06c-2.61-9.11-5.12-18.78-7.53-29.01-2.42-10.22-4.84-20.08-7.25-29.57h-1.12c-2.05,9.48-4.28,19.34-6.7,29.57-2.42,10.23-4.93,19.9-7.53,29.01l-23.99,92.06h-41.84ZM602.13,364.59v-32.08h87.59v32.08h-87.59Z"/>
    <path class="cls-1" d="M803.26,411.18c-12.09,0-23.99-2.19-35.71-6.56-11.72-4.37-22.23-11.02-31.52-19.95l21.76-26.78c6.51,5.58,13.9,9.95,22.18,13.11,8.27,3.17,16.41,4.74,24.41,4.74,8.55,0,14.92-1.58,19.11-4.74,4.18-3.16,6.28-7.44,6.28-12.83,0-3.9-1.07-7.02-3.21-9.34-2.14-2.32-5.16-4.41-9.07-6.28-3.91-1.86-8.56-3.9-13.95-6.14l-23.71-9.76c-6.14-2.79-12.04-6.37-17.71-10.74-5.68-4.37-10.23-9.76-13.67-16.18-3.44-6.42-5.16-14.09-5.16-23.01,0-10.04,2.74-19.11,8.23-27.2,5.48-8.09,13.11-14.6,22.87-19.53,9.76-4.93,20.97-7.39,33.62-7.39,10.97,0,21.57,1.95,31.8,5.86,10.23,3.9,19.15,9.58,26.78,17.02l-21.76,26.5c-5.95-4.46-12.04-7.9-18.27-10.32-6.23-2.42-12.41-3.63-18.55-3.63-7.07,0-12.69,1.44-16.88,4.32-4.18,2.89-6.28,6.93-6.28,12.14,0,3.53,1.21,6.56,3.63,9.07,2.41,2.51,5.76,4.65,10.04,6.42,4.28,1.77,8.93,3.77,13.95,6l23.43,9.49c7.44,2.98,13.81,6.69,19.11,11.16,5.3,4.46,9.44,9.81,12.41,16.04,2.97,6.23,4.46,13.63,4.46,22.18,0,10.04-2.7,19.34-8.09,27.9-5.4,8.56-13.21,15.44-23.43,20.64-10.23,5.2-22.6,7.81-37.1,7.81Z"/>
  </g>
  <rect class="cls-2" x="921.28" y="208.26" width="8.28" height="228.73"/>
  <g>
    <path class="cls-2" d="M1014.67,285.96c-5.88,0-11.14-1.33-15.77-4.01-4.63-2.67-8.27-6.58-10.91-11.72-2.64-5.14-3.96-11.33-3.96-18.56,0-5.41.79-10.25,2.38-14.51,1.59-4.26,3.77-7.9,6.54-10.91,2.77-3.01,6.05-5.29,9.84-6.85,3.79-1.56,7.88-2.33,12.27-2.33,4.67,0,8.61.85,11.82,2.54,3.21,1.69,5.8,3.62,7.76,5.78l-5.48,6.29c-1.62-1.76-3.53-3.16-5.73-4.21-2.2-1.05-4.89-1.57-8.06-1.57-4.19,0-7.86,1.03-11.01,3.09-3.14,2.06-5.58,4.99-7.3,8.77-1.72,3.79-2.59,8.32-2.59,13.59s.81,9.84,2.43,13.7c1.62,3.85,4.01,6.83,7.15,8.93,3.14,2.1,7.02,3.15,11.62,3.15,2.16,0,4.21-.3,6.14-.91,1.93-.61,3.46-1.45,4.62-2.54v-15.83h-13.29v-8.32h22.42v28.61c-2.17,2.23-5.06,4.09-8.67,5.58-3.62,1.49-7.69,2.23-12.22,2.23Z"/>
    <path class="cls-2" d="M1060.01,285.76c-2.43,0-4.4-.51-5.88-1.52-1.49-1.02-2.57-2.45-3.25-4.31-.68-1.86-1.01-4.11-1.01-6.75v-60.36h10.04v60.96c0,1.42.25,2.38.76,2.89.51.51,1.1.76,1.78.76.27,0,.52-.01.76-.05.24-.03.56-.08.96-.15l1.42,7.51c-.68.27-1.47.51-2.38.71-.91.2-1.98.3-3.19.3Z"/>
    <path class="cls-2" d="M1096.43,285.96c-4.13,0-7.95-1.01-11.46-3.04-3.52-2.03-6.37-4.99-8.57-8.88-2.2-3.89-3.3-8.57-3.3-14.05s1.1-10.16,3.3-14.05c2.2-3.89,5.05-6.86,8.57-8.93,3.52-2.06,7.34-3.09,11.46-3.09s7.84,1.03,11.36,3.09c3.52,2.06,6.37,5.04,8.57,8.93,2.2,3.89,3.3,8.57,3.3,14.05s-1.1,10.16-3.3,14.05c-2.2,3.89-5.06,6.85-8.57,8.88-3.52,2.03-7.3,3.04-11.36,3.04ZM1096.43,277.75c2.64,0,4.92-.74,6.85-2.23,1.93-1.49,3.41-3.55,4.46-6.19,1.05-2.64,1.57-5.75,1.57-9.33s-.53-6.61-1.57-9.28c-1.05-2.67-2.54-4.75-4.46-6.24-1.93-1.49-4.21-2.23-6.85-2.23s-4.92.74-6.85,2.23c-1.93,1.49-3.43,3.57-4.51,6.24-1.08,2.67-1.62,5.77-1.62,9.28s.54,6.69,1.62,9.33c1.08,2.64,2.59,4.7,4.51,6.19s4.21,2.23,6.85,2.23Z"/>
    <path class="cls-2" d="M1154.96,285.96c-2.23,0-4.55-.56-6.95-1.67-2.4-1.12-4.68-2.69-6.85-4.72h-.3l-.91,5.17h-7.91v-71.92h10.04v19.07l-.3,8.62c2.16-1.89,4.53-3.46,7.1-4.72,2.57-1.25,5.17-1.88,7.81-1.88,4.19,0,7.74,1.05,10.65,3.14,2.91,2.1,5.12,5.02,6.64,8.78,1.52,3.75,2.28,8.2,2.28,13.34,0,5.61-1,10.43-2.99,14.45-2,4.03-4.62,7.09-7.86,9.18-3.25,2.1-6.73,3.14-10.45,3.14ZM1153.03,277.64c2.43,0,4.63-.71,6.59-2.13,1.96-1.42,3.5-3.5,4.62-6.24,1.12-2.74,1.67-6.07,1.67-9.99,0-3.45-.41-6.44-1.22-8.98s-2.1-4.5-3.85-5.88c-1.76-1.39-4.02-2.08-6.8-2.08-1.89,0-3.84.51-5.83,1.52-2,1.01-4.04,2.54-6.14,4.56v24.55c1.89,1.69,3.82,2.89,5.78,3.6,1.96.71,3.69,1.06,5.17,1.06Z"/>
    <path class="cls-2" d="M1198.98,285.96c-2.84,0-5.36-.57-7.56-1.72-2.2-1.15-3.92-2.81-5.17-4.97-1.25-2.16-1.88-4.7-1.88-7.61,0-5.61,2.38-9.84,7.15-12.68,4.77-2.84,12.33-4.83,22.67-5.99,0-1.83-.29-3.57-.86-5.22-.58-1.66-1.57-2.98-2.99-3.96-1.42-.98-3.35-1.47-5.78-1.47-2.64,0-5.16.47-7.56,1.42-2.4.95-4.68,2.1-6.85,3.45l-3.75-6.9c1.69-1.08,3.58-2.11,5.68-3.09,2.1-.98,4.34-1.77,6.75-2.38,2.4-.61,4.92-.91,7.56-.91,4.06,0,7.4.85,10.04,2.54,2.64,1.69,4.6,4.09,5.88,7.2,1.28,3.11,1.93,6.87,1.93,11.26v29.82h-8.32l-.71-5.68h-.41c-2.3,1.9-4.75,3.52-7.35,4.87-2.6,1.35-5.43,2.03-8.47,2.03ZM1202.02,277.75c2.16,0,4.21-.49,6.14-1.47,1.93-.98,3.94-2.42,6.04-4.31v-11.87c-5.01.61-8.98,1.41-11.92,2.38-2.94.98-5.04,2.16-6.29,3.55-1.25,1.39-1.88,3.03-1.88,4.92,0,2.44.76,4.18,2.28,5.22,1.52,1.05,3.4,1.57,5.63,1.57Z"/>
    <path class="cls-2" d="M1249.09,285.76c-2.43,0-4.4-.51-5.88-1.52-1.49-1.02-2.57-2.45-3.25-4.31-.68-1.86-1.01-4.11-1.01-6.75v-60.36h10.04v60.96c0,1.42.25,2.38.76,2.89.51.51,1.1.76,1.78.76.27,0,.52-.01.76-.05.24-.03.56-.08.96-.15l1.42,7.51c-.68.27-1.47.51-2.38.71-.91.2-1.98.3-3.19.3Z"/>
    <path class="cls-2" d="M1286.83,284.75v-66.44h19.98c4.93,0,9.31.63,13.14,1.88,3.82,1.25,6.81,3.35,8.98,6.29,2.17,2.94,3.25,6.88,3.25,11.82s-1.07,8.76-3.2,11.87c-2.13,3.11-5.09,5.43-8.88,6.95-3.79,1.52-8.08,2.28-12.88,2.28h-10.24v25.36h-10.14ZM1296.97,251.17h9.23c5.41,0,9.42-1.05,12.02-3.14,2.6-2.1,3.9-5.34,3.9-9.74s-1.37-7.56-4.11-9.28c-2.74-1.73-6.81-2.59-12.22-2.59h-8.82v24.75Z"/>
    <path class="cls-2" d="M1351.85,285.96c-2.84,0-5.36-.57-7.56-1.72-2.2-1.15-3.92-2.81-5.17-4.97-1.25-2.16-1.88-4.7-1.88-7.61,0-5.61,2.38-9.84,7.15-12.68,4.77-2.84,12.33-4.83,22.67-5.99,0-1.83-.29-3.57-.86-5.22-.58-1.66-1.57-2.98-2.99-3.96-1.42-.98-3.35-1.47-5.78-1.47-2.64,0-5.16.47-7.56,1.42-2.4.95-4.68,2.1-6.85,3.45l-3.75-6.9c1.69-1.08,3.58-2.11,5.68-3.09,2.1-.98,4.34-1.77,6.75-2.38,2.4-.61,4.92-.91,7.56-.91,4.06,0,7.4.85,10.04,2.54,2.64,1.69,4.6,4.09,5.88,7.2,1.28,3.11,1.93,6.87,1.93,11.26v29.82h-8.32l-.71-5.68h-.4c-2.3,1.9-4.75,3.52-7.36,4.87-2.6,1.35-5.43,2.03-8.47,2.03ZM1354.89,277.75c2.16,0,4.21-.49,6.14-1.47,1.93-.98,3.94-2.42,6.04-4.31v-11.87c-5.01.61-8.98,1.41-11.92,2.38-2.94.98-5.04,2.16-6.29,3.55-1.25,1.39-1.88,3.03-1.88,4.92,0,2.44.76,4.18,2.28,5.22,1.52,1.05,3.4,1.57,5.63,1.57Z"/>
    <path class="cls-2" d="M1406.93,285.76c-5.55,0-9.43-1.6-11.67-4.82-2.23-3.21-3.35-7.39-3.35-12.53v-25.16h-7.2v-7.61l7.71-.51,1.22-15.72h8.42v15.72h12.98v8.11h-12.98v25.26c0,2.98.56,5.24,1.67,6.8,1.12,1.56,2.99,2.33,5.63,2.33.88,0,1.77-.08,2.69-.25s1.81-.46,2.69-.86l1.93,7c-1.28.68-2.77,1.22-4.46,1.62-1.69.41-3.45.61-5.28.61Z"/>
    <path class="cls-2" d="M1425.9,284.75v-71.92h10.04v19.07l-.41,9.94c2.16-2.16,4.55-4.02,7.15-5.58,2.6-1.56,5.59-2.33,8.98-2.33,5.28,0,9.13,1.69,11.56,5.07,2.44,3.38,3.65,8.22,3.65,14.5v31.24h-10.04v-29.93c0-4.4-.68-7.52-2.03-9.38-1.35-1.86-3.52-2.79-6.49-2.79-2.37,0-4.46.58-6.29,1.73-1.83,1.15-3.85,2.84-6.09,5.07v35.3h-10.04Z"/>
    <path class="cls-2" d="M1501.57,285.96c-4.13,0-7.95-1.01-11.46-3.04s-6.37-4.99-8.57-8.88c-2.2-3.89-3.3-8.57-3.3-14.05s1.1-10.16,3.3-14.05c2.2-3.89,5.05-6.86,8.57-8.93,3.52-2.06,7.34-3.09,11.46-3.09s7.84,1.03,11.36,3.09c3.52,2.06,6.37,5.04,8.57,8.93,2.2,3.89,3.3,8.57,3.3,14.05s-1.1,10.16-3.3,14.05c-2.2,3.89-5.06,6.85-8.57,8.88-3.52,2.03-7.3,3.04-11.36,3.04ZM1501.57,277.75c2.64,0,4.92-.74,6.85-2.23,1.93-1.49,3.41-3.55,4.46-6.19,1.05-2.64,1.57-5.75,1.57-9.33s-.53-6.61-1.57-9.28c-1.05-2.67-2.54-4.75-4.46-6.24-1.93-1.49-4.21-2.23-6.85-2.23s-4.92.74-6.85,2.23c-1.93,1.49-3.43,3.57-4.51,6.24-1.08,2.67-1.62,5.77-1.62,9.28s.54,6.69,1.62,9.33c1.08,2.64,2.59,4.7,4.51,6.19,1.93,1.49,4.21,2.23,6.85,2.23Z"/>
    <path class="cls-2" d="M1554.12,307.06c-3.99,0-7.54-.49-10.65-1.47-3.11-.98-5.55-2.44-7.3-4.36-1.76-1.93-2.64-4.35-2.64-7.25,0-2.1.64-4.07,1.93-5.93,1.28-1.86,3.04-3.5,5.28-4.92v-.41c-1.22-.88-2.27-1.98-3.15-3.3-.88-1.32-1.32-2.96-1.32-4.92s.59-3.84,1.78-5.43c1.18-1.59,2.42-2.86,3.7-3.8v-.41c-1.62-1.28-3.11-3.08-4.46-5.38-1.35-2.3-2.03-4.9-2.03-7.81,0-3.72.89-6.9,2.69-9.54,1.79-2.64,4.12-4.67,7-6.09,2.87-1.42,6.04-2.13,9.49-2.13,1.35,0,2.65.12,3.91.35,1.25.24,2.35.52,3.3.86h17.45v7.61h-9.74v.41c1.01,1.01,1.86,2.27,2.54,3.75.68,1.49,1.01,3.21,1.01,5.17,0,3.59-.83,6.63-2.48,9.13-1.66,2.5-3.87,4.43-6.64,5.78-2.77,1.35-5.88,2.03-9.33,2.03-1.15,0-2.33-.14-3.55-.41-1.22-.27-2.4-.64-3.55-1.12-.74.68-1.39,1.42-1.93,2.23-.54.81-.81,1.86-.81,3.15,0,1.42.61,2.59,1.83,3.5,1.22.91,3.38,1.37,6.49,1.37h9.23c5.88,0,10.31.95,13.29,2.84,2.98,1.89,4.46,4.97,4.46,9.23,0,3.18-1.05,6.07-3.15,8.67-2.1,2.6-5.07,4.68-8.93,6.24-3.86,1.55-8.42,2.33-13.69,2.33ZM1555.64,300.37c2.91,0,5.44-.41,7.61-1.22,2.16-.81,3.86-1.91,5.07-3.3,1.22-1.39,1.83-2.89,1.83-4.51,0-2.1-.8-3.53-2.38-4.31s-3.9-1.17-6.95-1.17h-7.71c-1.08,0-2.18-.07-3.3-.2-1.12-.14-2.18-.3-3.2-.51-1.56,1.08-2.69,2.25-3.4,3.5s-1.06,2.55-1.06,3.91c0,2.43,1.2,4.34,3.6,5.73,2.4,1.39,5.7,2.08,9.89,2.08ZM1554.42,262.53c1.76,0,3.35-.44,4.77-1.32,1.42-.88,2.57-2.13,3.45-3.75.88-1.62,1.32-3.55,1.32-5.78,0-3.38-.93-6-2.79-7.86-1.86-1.86-4.11-2.79-6.75-2.79s-4.97.93-6.8,2.79c-1.83,1.86-2.74,4.48-2.74,7.86,0,2.23.44,4.16,1.32,5.78s2.03,2.87,3.45,3.75c1.42.88,3.01,1.32,4.77,1.32Z"/>
    <path class="cls-2" d="M1608.29,285.96c-4.6,0-8.72-1.03-12.38-3.09-3.65-2.06-6.54-5.02-8.67-8.88-2.13-3.85-3.19-8.52-3.19-14s1.08-10.06,3.25-13.95c2.16-3.89,4.97-6.88,8.42-8.98,3.45-2.1,7.1-3.14,10.95-3.14,4.4,0,8.08,1,11.06,2.99,2.98,2,5.22,4.74,6.75,8.22,1.52,3.48,2.28,7.56,2.28,12.22,0,.95-.03,1.89-.1,2.84-.07.95-.2,1.86-.41,2.74h-34.89v-7.81h26.47c0-4.19-.91-7.42-2.74-9.69-1.83-2.27-4.57-3.4-8.22-3.4-2.1,0-4.13.56-6.09,1.67-1.96,1.11-3.59,2.98-4.87,5.58-1.28,2.6-1.93,6.14-1.93,10.6,0,4.06.71,7.4,2.13,10.04,1.42,2.64,3.31,4.61,5.68,5.93,2.37,1.32,4.9,1.98,7.61,1.98,2.3,0,4.45-.32,6.44-.96,1.99-.64,3.84-1.5,5.53-2.59l3.55,6.49c-2.23,1.56-4.75,2.81-7.56,3.75-2.81.95-5.83,1.42-9.08,1.42Z"/>
    <path class="cls-2" d="M1638.41,284.75v-49.6h8.22l.81,7h.31c2.3-2.3,4.77-4.24,7.4-5.83,2.64-1.59,5.64-2.38,9.03-2.38,5.28,0,9.13,1.69,11.56,5.07,2.44,3.38,3.65,8.22,3.65,14.5v31.24h-10.04v-29.93c0-4.4-.68-7.52-2.03-9.38-1.35-1.86-3.52-2.79-6.49-2.79-2.37,0-4.46.58-6.29,1.73-1.83,1.15-3.85,2.84-6.09,5.07v35.3h-10.04Z"/>
    <path class="cls-2" d="M978.96,406.47l22.11-66.44h11.67l22.11,66.44h-10.75l-10.85-36.21c-1.15-3.65-2.23-7.32-3.25-11.01-1.01-3.69-2.03-7.42-3.04-11.21h-.41c-.95,3.79-1.94,7.52-2.99,11.21-1.05,3.69-2.15,7.35-3.3,11.01l-10.96,36.21h-10.35ZM991.34,387.4v-8.01h30.94v8.01h-30.94Z"/>
    <path class="cls-2" d="M1042.77,406.47v-49.6h8.22l.81,7h.3c2.3-2.3,4.77-4.24,7.4-5.83,2.64-1.59,5.65-2.38,9.03-2.38,5.28,0,9.13,1.69,11.56,5.07,2.44,3.38,3.65,8.22,3.65,14.5v31.24h-10.04v-29.93c0-4.4-.68-7.52-2.03-9.38-1.35-1.86-3.52-2.79-6.49-2.79-2.37,0-4.46.58-6.29,1.73-1.83,1.15-3.86,2.84-6.09,5.07v35.3h-10.04Z"/>
    <path class="cls-2" d="M1110.53,407.69c-2.84,0-5.36-.57-7.56-1.72-2.2-1.15-3.92-2.81-5.17-4.97-1.25-2.16-1.88-4.7-1.88-7.61,0-5.61,2.38-9.84,7.15-12.68,4.77-2.84,12.33-4.83,22.67-5.99,0-1.83-.29-3.57-.86-5.22-.58-1.66-1.57-2.98-2.99-3.96-1.42-.98-3.35-1.47-5.78-1.47-2.64,0-5.16.47-7.56,1.42-2.4.95-4.68,2.1-6.85,3.45l-3.75-6.9c1.69-1.08,3.58-2.11,5.68-3.09,2.1-.98,4.34-1.77,6.75-2.38,2.4-.61,4.92-.91,7.56-.91,4.06,0,7.4.85,10.04,2.54,2.64,1.69,4.6,4.09,5.88,7.2,1.28,3.11,1.93,6.87,1.93,11.26v29.82h-8.32l-.71-5.68h-.41c-2.3,1.9-4.75,3.52-7.35,4.87-2.6,1.35-5.43,2.03-8.47,2.03ZM1113.57,399.47c2.16,0,4.21-.49,6.14-1.47,1.93-.98,3.94-2.42,6.04-4.31v-11.87c-5.01.61-8.98,1.41-11.92,2.38-2.94.98-5.04,2.16-6.29,3.55-1.25,1.39-1.88,3.03-1.88,4.92,0,2.44.76,4.18,2.28,5.22,1.52,1.05,3.4,1.57,5.63,1.57Z"/>
    <path class="cls-2" d="M1160.64,407.49c-2.43,0-4.4-.51-5.88-1.52-1.49-1.02-2.57-2.45-3.25-4.31-.68-1.86-1.01-4.11-1.01-6.75v-60.36h10.04v60.96c0,1.42.25,2.38.76,2.89.51.51,1.1.76,1.78.76.27,0,.52-.01.76-.05.24-.03.56-.08.96-.15l1.42,7.51c-.68.27-1.47.51-2.38.71-.91.2-1.98.3-3.19.3Z"/>
    <path class="cls-2" d="M1179.3,427.27c-1.22,0-2.33-.1-3.35-.3-1.01-.2-1.96-.44-2.84-.71l2.03-7.71c.68.2,1.3.35,1.88.46.57.1,1.13.15,1.67.15,2.7,0,4.92-.91,6.64-2.74,1.72-1.83,3.03-4.09,3.9-6.8l1.01-3.45-19.68-49.3h10.24l9.33,25.87c.74,2.16,1.5,4.45,2.28,6.85.78,2.4,1.54,4.78,2.28,7.15h.41c.67-2.3,1.35-4.65,2.03-7.05.68-2.4,1.32-4.72,1.93-6.95l8.11-25.87h9.74l-18.26,52.75c-1.29,3.52-2.77,6.59-4.46,9.23-1.69,2.64-3.74,4.7-6.14,6.19-2.4,1.49-5.33,2.23-8.77,2.23Z"/>
    <path class="cls-2" d="M1239.45,407.69c-3.59,0-7-.63-10.25-1.88-3.25-1.25-6.05-3.03-8.42-5.33l4.46-5.78c2.23,1.76,4.5,3.08,6.8,3.96,2.3.88,4.87,1.32,7.71,1.32s5.19-.66,6.64-1.98c1.45-1.32,2.18-2.92,2.18-4.82,0-1.49-.53-2.75-1.57-3.8-1.05-1.05-2.38-1.93-4.01-2.64-1.62-.71-3.35-1.4-5.17-2.08-2.43-.88-4.75-1.94-6.95-3.19-2.2-1.25-3.97-2.79-5.33-4.61-1.35-1.83-2.03-4.06-2.03-6.7,0-4.19,1.57-7.66,4.72-10.4,3.14-2.74,7.46-4.11,12.93-4.11,3.18,0,6.14.54,8.88,1.62s5.09,2.47,7.05,4.16l-4.46,5.78c-1.76-1.22-3.55-2.16-5.38-2.84-1.83-.68-3.82-1.01-5.99-1.01-2.77,0-4.84.63-6.19,1.88-1.35,1.25-2.03,2.72-2.03,4.41,0,1.35.42,2.49,1.27,3.4.85.91,2.03,1.71,3.55,2.38,1.52.68,3.33,1.39,5.43,2.13,2.57.88,4.99,1.93,7.25,3.14,2.27,1.22,4.09,2.77,5.48,4.67,1.39,1.9,2.08,4.3,2.08,7.2s-.71,5.31-2.13,7.61c-1.42,2.3-3.52,4.13-6.29,5.48-2.77,1.35-6.19,2.03-10.25,2.03Z"/>
    <path class="cls-2" d="M1274.14,347.44c-1.83,0-3.33-.56-4.51-1.67-1.18-1.12-1.77-2.59-1.77-4.41s.59-3.2,1.77-4.31c1.18-1.12,2.69-1.67,4.51-1.67s3.41.56,4.57,1.67c1.15,1.12,1.72,2.55,1.72,4.31s-.57,3.3-1.72,4.41c-1.15,1.12-2.67,1.67-4.57,1.67ZM1269.07,406.47v-49.6h10.04v49.6h-10.04Z"/>
    <path class="cls-2" d="M1308.33,407.69c-3.58,0-7-.63-10.24-1.88-3.25-1.25-6.05-3.03-8.42-5.33l4.46-5.78c2.23,1.76,4.49,3.08,6.8,3.96,2.3.88,4.87,1.32,7.71,1.32s5.19-.66,6.64-1.98c1.45-1.32,2.18-2.92,2.18-4.82,0-1.49-.53-2.75-1.57-3.8-1.05-1.05-2.38-1.93-4.01-2.64-1.62-.71-3.35-1.4-5.17-2.08-2.43-.88-4.75-1.94-6.95-3.19-2.2-1.25-3.98-2.79-5.33-4.61-1.35-1.83-2.03-4.06-2.03-6.7,0-4.19,1.58-7.66,4.72-10.4,3.14-2.74,7.46-4.11,12.93-4.11,3.18,0,6.14.54,8.88,1.62,2.74,1.08,5.09,2.47,7.05,4.16l-4.46,5.78c-1.76-1.22-3.55-2.16-5.38-2.84-1.83-.68-3.82-1.01-5.99-1.01-2.77,0-4.83.63-6.19,1.88-1.35,1.25-2.03,2.72-2.03,4.41,0,1.35.42,2.49,1.27,3.4.85.91,2.03,1.71,3.55,2.38,1.52.68,3.33,1.39,5.43,2.13,2.57.88,4.99,1.93,7.25,3.14,2.27,1.22,4.09,2.77,5.48,4.67,1.39,1.9,2.08,4.3,2.08,7.2s-.71,5.31-2.13,7.61c-1.42,2.3-3.52,4.13-6.29,5.48-2.77,1.35-6.19,2.03-10.25,2.03Z"/>
    <path class="cls-2" d="M1378.12,407.69c-4.67,0-8.99-.86-12.98-2.59-3.99-1.73-7.54-4.14-10.65-7.25l5.58-6.59c2.37,2.37,5.16,4.23,8.37,5.58,3.21,1.35,6.51,2.03,9.89,2.03,4.06,0,7.19-.89,9.38-2.69,2.2-1.79,3.3-4.14,3.3-7.05,0-2.03-.46-3.67-1.37-4.92s-2.18-2.3-3.8-3.15c-1.62-.84-3.45-1.71-5.48-2.59l-9.33-4.06c-2.16-.95-4.28-2.16-6.34-3.65-2.06-1.49-3.77-3.35-5.12-5.58-1.35-2.23-2.03-4.97-2.03-8.22,0-3.45.93-6.54,2.79-9.28,1.86-2.74,4.41-4.9,7.66-6.49,3.25-1.59,7-2.38,11.26-2.38,3.99,0,7.71.74,11.16,2.23,3.45,1.49,6.39,3.45,8.83,5.88l-5.38,6.59c-2.1-1.83-4.38-3.26-6.85-4.31-2.47-1.05-5.06-1.57-7.76-1.57-3.45,0-6.22.78-8.32,2.33-2.1,1.56-3.15,3.69-3.15,6.39,0,1.96.52,3.55,1.57,4.77,1.05,1.22,2.42,2.23,4.11,3.04,1.69.81,3.41,1.62,5.17,2.43l9.23,3.96c2.64,1.08,4.97,2.38,7,3.91,2.03,1.52,3.62,3.4,4.77,5.63,1.15,2.23,1.73,4.97,1.73,8.22,0,3.59-.91,6.85-2.74,9.79-1.83,2.94-4.48,5.28-7.96,7-3.48,1.72-7.66,2.59-12.53,2.59Z"/>
    <path class="cls-2" d="M1433.71,407.69c-4.6,0-8.72-1.03-12.38-3.09-3.65-2.06-6.54-5.02-8.67-8.88-2.13-3.85-3.19-8.52-3.19-14s1.08-10.06,3.25-13.95c2.16-3.89,4.97-6.88,8.42-8.98,3.45-2.1,7.1-3.14,10.95-3.14,4.4,0,8.08,1,11.06,2.99,2.98,2,5.22,4.74,6.75,8.22,1.52,3.48,2.28,7.56,2.28,12.22,0,.95-.03,1.89-.1,2.84-.07.95-.2,1.86-.41,2.74h-34.89v-7.81h26.47c0-4.19-.91-7.42-2.74-9.69-1.83-2.27-4.57-3.4-8.22-3.4-2.1,0-4.13.56-6.09,1.67-1.96,1.11-3.59,2.98-4.87,5.58-1.28,2.6-1.93,6.14-1.93,10.6,0,4.06.71,7.4,2.13,10.04,1.42,2.64,3.31,4.61,5.68,5.93,2.37,1.32,4.9,1.98,7.61,1.98,2.3,0,4.45-.32,6.44-.96,1.99-.64,3.84-1.5,5.53-2.59l3.55,6.49c-2.23,1.56-4.75,2.81-7.56,3.75-2.81.95-5.83,1.42-9.08,1.42Z"/>
    <path class="cls-2" d="M1463.83,406.47v-49.6h8.22l.81,8.93h.31c1.69-3.18,3.77-5.66,6.24-7.46,2.47-1.79,5.09-2.69,7.86-2.69,1.15,0,2.15.08,2.99.25.85.17,1.64.42,2.38.76l-2.03,8.62c-.74-.2-1.45-.35-2.13-.46-.68-.1-1.52-.15-2.54-.15-2.03,0-4.16.8-6.39,2.38-2.23,1.59-4.13,4.38-5.68,8.37v31.04h-10.04Z"/>
    <path class="cls-2" d="M1513.33,406.47l-17.55-49.6h10.25l8.62,26.98c.68,2.37,1.4,4.8,2.18,7.3.78,2.5,1.5,4.97,2.18,7.4h.41c.74-2.44,1.49-4.9,2.23-7.4.74-2.5,1.45-4.94,2.13-7.3l8.62-26.98h9.74l-17.14,49.6h-11.67Z"/>
    <path class="cls-2" d="M1556.24,347.44c-1.83,0-3.33-.56-4.51-1.67-1.18-1.12-1.77-2.59-1.77-4.41s.59-3.2,1.77-4.31c1.18-1.12,2.69-1.67,4.51-1.67s3.41.56,4.57,1.67c1.15,1.12,1.72,2.55,1.72,4.31s-.57,3.3-1.72,4.41c-1.15,1.12-2.67,1.67-4.57,1.67ZM1551.17,406.47v-49.6h10.04v49.6h-10.04Z"/>
    <path class="cls-2" d="M1597.33,407.69c-4.53,0-8.59-1.03-12.17-3.09-3.59-2.06-6.43-5.02-8.52-8.88-2.1-3.85-3.15-8.52-3.15-14s1.13-10.16,3.4-14.05c2.27-3.89,5.26-6.86,8.98-8.93,3.72-2.06,7.71-3.09,11.97-3.09,3.25,0,6.05.54,8.42,1.62,2.37,1.08,4.43,2.43,6.19,4.06l-4.87,6.29c-1.15-1.08-2.49-1.96-4.01-2.64-1.52-.68-3.26-1.01-5.22-1.01-2.77,0-5.24.74-7.4,2.23-2.17,1.49-3.89,3.55-5.17,6.19-1.28,2.64-1.93,5.75-1.93,9.33s.61,6.69,1.83,9.33c1.22,2.64,2.91,4.7,5.07,6.19,2.16,1.49,4.67,2.23,7.51,2.23,2.1,0,4.06-.41,5.88-1.22,1.83-.81,3.45-1.86,4.87-3.14l4.26,6.19c-2.1,1.96-4.5,3.52-7.2,4.67-2.71,1.15-5.61,1.72-8.72,1.72Z"/>
    <path class="cls-2" d="M1641.96,407.69c-4.6,0-8.72-1.03-12.38-3.09-3.65-2.06-6.54-5.02-8.67-8.88-2.13-3.85-3.19-8.52-3.19-14s1.08-10.06,3.25-13.95c2.16-3.89,4.97-6.88,8.42-8.98,3.45-2.1,7.1-3.14,10.95-3.14,4.4,0,8.08,1,11.06,2.99,2.98,2,5.22,4.74,6.75,8.22,1.52,3.48,2.28,7.56,2.28,12.22,0,.95-.03,1.89-.1,2.84-.07.95-.2,1.86-.41,2.74h-34.89v-7.81h26.47c0-4.19-.91-7.42-2.74-9.69-1.83-2.27-4.57-3.4-8.22-3.4-2.1,0-4.13.56-6.09,1.67-1.96,1.11-3.59,2.98-4.87,5.58s-1.93,6.14-1.93,10.6c0,4.06.71,7.4,2.13,10.04,1.42,2.64,3.31,4.61,5.68,5.93,2.37,1.32,4.9,1.98,7.61,1.98,2.3,0,4.45-.32,6.44-.96,1.99-.64,3.84-1.5,5.53-2.59l3.55,6.49c-2.23,1.56-4.75,2.81-7.56,3.75-2.81.95-5.83,1.42-9.08,1.42Z"/>
  </g>
  <circle class="cls-1" cx="434.72" cy="155.9" r="13.68"/>
  <circle class="cls-1" cx="195.72" cy="546.65" r="13.68"/>
  <circle class="cls-2" cx="408.24" cy="75.51" r="17.67"/>
  <circle class="cls-1" cx="328.92" cy="592.68" r="17.67"/>
  <circle class="cls-2" cx="185.81" cy="158.61" r="14.64"/>
  <circle class="cls-2" cx="395.47" cy="564.02" r="14.64"/>
  <circle class="cls-2" cx="130.71" cy="365.53" r="14.64"/>
  <circle class="cls-1" cx="110.29" cy="178.6" r="17.66"/>
  <circle class="cls-1" cx="116.07" cy="436.06" r="17.66"/>
  <circle class="cls-2" cx="120.62" cy="253.13" r="17.66"/>
  <circle class="cls-2" cx="272.81" cy="530.71" r="17.66"/>
  <circle class="cls-1" cx="70.58" cy="310.08" r="22.05"/>
  <circle class="cls-2" cx="184.05" cy="462.34" r="22.05"/>
  <circle class="cls-1" cx="206.95" cy="75.51" r="15.14"/>
  <circle class="cls-2" cx="289.66" cy="123.7" r="15.19"/>
  <circle class="cls-1" cx="342.16" cy="79.18" r="21.33"/>
</svg>